/* XPM */
static char *de584e0144da463ef4cf475562a42d8f8F6rsVKq1UZzjSk9[] = {
/* columns rows colors chars-per-pixel */
"64 64 179 2 ",
"   c #50000F",
".  c #49061B",
"X  c #52011D",
"o  c #52091E",
"O  c #53121E",
"+  c #4B2C0C",
"@  c #562416",
"#  c #562B1E",
"$  c #49301F",
"%  c #54341A",
"&  c #57381D",
"*  c #59381C",
"=  c #560021",
"-  c #590B23",
";  c #551221",
":  c #561C23",
">  c #581D25",
",  c #562324",
"<  c #582525",
"1  c #562C24",
"2  c #592A26",
"3  c #4E3422",
"4  c #513724",
"5  c #593327",
"6  c #553A26",
"7  c #593C24",
"8  c #5C3629",
"9  c #563C28",
"0  c #5A3D29",
"q  c #564027",
"w  c #5C4527",
"e  c #574229",
"r  c #5C422B",
"t  c #5C4A2C",
"y  c #5D562E",
"u  c #5D5A2F",
"i  c #5D4930",
"p  c #5E5C30",
"a  c #62452E",
"s  c #604A2E",
"d  c #714C29",
"f  c #76512E",
"g  c #654730",
"h  c #6D4233",
"j  c #664830",
"k  c #6C4D34",
"l  c #714E36",
"z  c #6E5236",
"x  c #6C513C",
"c  c #715137",
"v  c #7A5535",
"b  c #76553A",
"n  c #79573B",
"m  c #705F39",
"M  c #7B593C",
"N  c #55622D",
"B  c #5B6531",
"V  c #5D6932",
"C  c #5D7B38",
"Z  c #626534",
"A  c #636C35",
"S  c #666B38",
"D  c #6B6E3C",
"F  c #786A3E",
"G  c #617335",
"H  c #617A36",
"J  c #67753A",
"K  c #6B743C",
"L  c #647C38",
"P  c #6B7C3C",
"I  c #5F4742",
"U  c #5D4E44",
"Y  c #604D44",
"T  c #635246",
"R  c #615148",
"E  c #7C5C41",
"W  c #765F4E",
"Q  c #7B5F4A",
"!  c #7D604A",
"~  c #6F7740",
"^  c #6E7A40",
"/  c #696757",
"(  c #67605E",
")  c #69655B",
"_  c #766050",
"`  c #7D6554",
"'  c #71635A",
"]  c #666564",
"[  c #696462",
"{  c #6C6D6D",
"}  c #716963",
"|  c #7F6E62",
" . c #716D6A",
".. c #6C6E70",
"X. c #6E7172",
"o. c #815C3F",
"O. c #89613F",
"+. c #825E40",
"@. c #866142",
"#. c #8C6545",
"$. c #8F6847",
"%. c #88664C",
"&. c #8F6849",
"*. c #936740",
"=. c #926946",
"-. c #996C45",
";. c #956C4A",
":. c #996E4C",
">. c #9C714E",
",. c #8C6D58",
"<. c #9F7351",
"1. c #A1724B",
"2. c #A37552",
"3. c #A77854",
"4. c #AB7B56",
"5. c #AE7E59",
"6. c #B07F59",
"7. c #806F63",
"8. c #86776D",
"9. c #8F7C6F",
"0. c #907C6E",
"q. c #877C75",
"w. c #847E79",
"e. c #907D70",
"r. c #5E863A",
"t. c #599C3F",
"y. c #65813A",
"u. c #628C3C",
"i. c #6C883F",
"p. c #63933E",
"a. c #67973E",
"s. c #5EA13F",
"d. c #5E9D41",
"f. c #668540",
"g. c #649641",
"h. c #699340",
"j. c #619D42",
"k. c #6B9B42",
"l. c #719E46",
"z. c #5FA143",
"x. c #64A443",
"c. c #68A644",
"v. c #65A945",
"b. c #6BAB45",
"n. c #70AB47",
"m. c #76A44B",
"M. c #72AD49",
"N. c #7AAE4D",
"B. c #6EB047",
"V. c #6FB649",
"C. c #73B34A",
"Z. c #7BB24E",
"A. c #74B94B",
"S. c #76AF51",
"D. c #77B250",
"F. c #7DB451",
"G. c #7FB953",
"H. c #B5835C",
"J. c #BA865E",
"K. c #BC885F",
"L. c #80B14F",
"P. c #81B452",
"I. c #82BB55",
"U. c #87BB58",
"Y. c #89BE5B",
"T. c #85817E",
"R. c #8D837C",
"E. c #BE8960",
"W. c #C28C63",
"Q. c #8CC15E",
"!. c #8FC260",
"~. c #91C462",
"^. c #93C964",
"/. c #878685",
"(. c #888785",
"). c #898887",
"_. c #878A8B",
"`. c #898A8B",
"'. c #898F91",
/* pixels */
"M.b.b.n.C.I.I.U.I.F.N.N.N.N.F.N.Z.L.i.y Z p G c.b.c.c.c.v.x.c.x.c.v.x.x.D.!.Q.Q.Q.Q.Y.Y.Q.I.C.M.C.C.x.x.x.x.x.b.b.b.b.c.x.x.x.c.",
"b.b.b.b.N.U.U.U.Y.P.L.L.L.P.P.P.P.I.P X 9 = t a.b.c.c.v.x.x.x.x.z.z.d.t.D.^.~.~.~.^.~.~.^.Q.C.C.C.C.v.x.x.z.x.b.b.b.b.b.b.b.b.c.",
"b.b.b.b.N.I.U.U.U.P.N.L.N.P.P.P.P.P.P 1 t 8 B c.b.c.c.v.x.x.x.x.x.x.x.z.S.~.!.~.~.!.!.!.~.Y.C.C.A.C.c.x.x.x.x.b.b.b.b.b.c.c.c.x.",
"B.B.B.B.N.U.U.U.U.P.L.P.P.P.P.P.P.I.P : t 2 y c.b.c.b.v.v.v.v.c.d.z.d.t.S.^.~.~.~.~.~.!.~.Y.n.B.M.C.v.x.v.x.b.b.b.b.n.b.b.c.b.b.",
"a.a.p.u.l.Q.Y.Y.Y.F.M.Z.N.N.N.N.Z.Z.L , t 2 y c.B.v.b.a.p.u.u.u.x.c.b.x.D.!.Q.Q.Q.!.^.~.~.Y.G.G.G.G.k.r.u.u.g.x.b.c.c.x.c.x.c.x.",
"Z : 5 ; D ^.~.~.~.N.s.x.x.x.b.b.b.b.H , t 2 p n.B.b.A.y.: 5 2 9 N.C.C.C.F.I.G.G.I.Q.~.!.~.!.~.~.~.~.~ X r - p d.z.d.d.x.s.z.x.p.",
"S 2 r 2 K ~.Y.~.~.N.t.c.x.x.b.c.b.b.H , t 2 p n.C.n.B.y.2 r 0 t n.C.C.C.A.G.G.G.G.!.~.!.~.~.!.!.~.!.P o t 2 B d.d.d.d.j.z.x.z.p.",
"S # w 1 K ^.^.^.!.D.x.b.x.c.b.b.b.b.H , t < p n.A.n.A.y.5 q 0 t M.C.C.C.A.G.Q.I.I.!.~.~.~.~.~.~.^.~.~ o y , B j.z.j.z.z.x.x.v.t.",
"A 2 r 2 D ^.!.~.~.D.s.v.x.x.b.b.b.b.H < t 2 p b.C.M.C.L 2 0 9 t n.C.C.C.Z.G.I.I.I.!.~.!.~.~.!.!.~.~.~ X t < B j.x.d.d.x.x.x.z.g.",
"/ ( ( ( / ~ ~ P ^ G V V B L b.n.b.C.H < t 5 t A G A G p 9 0 0 t j.v.c.c.g.S L J J m.F.D.D.m.^ ^ ~ ~ m l x l z V B B V V B B V V ",
"[ X. .X.[   ; o = : < 2 = u C.C.C.C.L , 0 0 0 < > < > 5 0 0 0 r d.z.d.z.r.X < = , a.B.x.b.p.X O o o l F M M l 2 , 2 < 2 , 2 < 8 ",
"[ { { { ) w s t t s s s 8 A n.n.b.C.L 2 r w 0 r t r i r 0 w r r d.z.z.x.r.8 i e t k.b.b.n.g.0 t i i c M M M b r r t r r r r 9 g ",
"] X...X.( $ 4 4 4 $ $ $ . N B.A.A.A.H o 9 4 4 6 9 9 6 9 0 9 6 q d.x.z.z.g., r 8 q c.V.b.A.a.@ & * * c M n M l 4 4 4 4 9 0 0 0 a ",
"' } } } ' k z k z M M M v ! l.a.k.k.K h z k k g g g g g g g g j r.g.f.d.C 5 e 0 0 u.k.h.k.y.I x Y U n v n n n k k k k g 9 e 9 a ",
"E M M n @.;.;.;.=.5.J.H.K.4.t q t 9 o.:.;.;.;.M b M n n n n n n r e r e e 0 0 0 0 w w r q T { { { { W v E b +.;.;.;.;.c 6 0 0 r ",
"+.v n b o.:.:.;.;.H.W.J.W.5.8 1 8 1 o.>.;.:.;.M n M M M n M n n 8 5 8 5 8 0 0 0 0 8 5 5 # Y X.{ { { _ v n b +.:.:.:.:.v 6 0 9 a ",
"+.n M n +.:.;.;.;.5.J.H.K.4.a q r q +.:.;.:.=.n n n n n n n M v t q r r r 0 0 0 0 0 w w 7 T { { { { W v n n E ;.;.;.:.c 6 0 0 a ",
"+.n M M +.:.;.;.;.H.E.J.W.5.0 6 0 4 +.:.;.;.;.E M M M M M M M M 0 9 9 0 0 0 6 0 0 9 9 9 % R X...{ X._ v E n +.:.:.;.>.l 4 0 6 0 ",
"k g j a x :.;.;.;.>.2.2.2.:.c k c k @.:.;.:.=.k a j g g g g g g 0 0 0 0 a c z k l c l c c x U R R R b M n n M +.+.+.@.b c c k n ",
"r 9 0 4 k :.:.;.;.;.;.;.;.=.M M M n #.>.;.:.=.0 4 0 0 9 9 9 9 9 0 0 0 9 k M n M M M M M M c & 7 & & z M n M M n n n n M M M n @.",
"a 9 0 6 k :.;.;.;.;.;.;.;.#.E n n n #.;.;.:.%.a 6 0 0 w 0 0 r 0 a r 0 0 k M n M n M M M M v 0 r 0 r c E n n M n M M M M M M b o.",
"a 0 0 6 k :.;.:.;.;.;.:.:.;.v v b v #.:.;.:.&.a 6 0 0 5 6 6 6 6 6 6 6 6 j M n M n b b b M k 3 9 4 6 l n n n n M n n n M n M b @.",
"g 0 r 6 k ;.;.;.;.;.;.;.;.;.Q Q ! ! %.;.&.:.#.g 0 a r j k k j k k k k k c M n M n +.@.@.@.M h k k k b E M M M M M M M M n M n O.",
"b 4 0 0 a M M n M n n M v ` /.`.).`.| v E M M n M M l :.J.J.J.H.J.H.H.E.2.b M n M 5.K.H.J.J.H.H.J.H.=.c M n +.;.:.:.;.@.n M M M ",
"b 4 0 6 a n n n n n n M f ` `.`._._.| f n n n n M M b <.W.K.K.J.E.E.E.E.3.c M n M 6.W.J.J.K.K.K.E.E.;.l E n +.;.:.;.:.@.n n n M ",
"b 4 0 0 g M M M M M M E v ` ).`.).`.7.v E n M M n M b <.K.J.J.J.J.J.J.E.2.l M n M 6.K.J.J.J.J.J.J.J.&.b M b +.-.;.;.;.@.n M M M ",
"c 4 0 6 r b b c c c c b d ` _._._._.| f n n n M M M z 2.W.E.K.E.E.E.E.W.3.b M M M H.W.J.K.K.E.E.E.E.;.l +.b o.-.:.:.>.@.b n n M ",
"o.j k j n 2.>.>.<.>.<.<.<.<.e.0.e.9.,.O.@.#.@.M n M b #.>.2.>.>.3.3.3.4.;.j k j k >.4.3.3.4.3.3.4.3.+.b M b F @.@.@.@.#.@.#.@.#.",
"#.n M n =.W.E.K.E.E.E.E.W.H.=.*.-.-.-.:.;.>.;.M b M M b c c c b #.;.;.;.E 3 0 6 0 @.:.=.;.;.;.;.;.;.+.b M M n b n n n #.>.:.:.:.",
"@.b n b #.K.J.J.J.J.H.J.J.H.:.;.:.;.:.;.;.;.;.M b M b M M M M M ;.:.;.:.+.6 w 0 0 #.:.:.;.;.;.;.;.;.+.b M n n M n M n #.;.;.;.;.",
"#.b M b #.E.E.E.E.J.E.E.E.H.:.;.;.:.;.;.;.:.;.M b M n M M M M M ;.:.;.:.+.3 0 5 0 #.:.;.;.;.;.;.:.:.+.b M n n n n M n #.>.;.:.;.",
"@.n M b #.J.H.H.H.J.J.H.J.H.;.;.;.;.;.:.;.:.=.M n M M b n n b n =.;.;.:.+.9 r r a #.:.;.;.;.;.;.;.;.+.b M n M M M n b #.;.=.;.;.",
"+.b M n M +.+.o.o.;.>.:.>.;.M M M M #.:.;.:.;.M n n M k 0 0 0 a M M M M @.;.=.#.=.;.;.;.>.#.M M M M M M M b M n n M M z a a a a ",
"+.b M n M b b b b #.;.;.;.;.M b n b #.:.;.;.;.M n n M k 0 0 0 0 b M n b @.:.:.:.:.;.;.;.>.#.b n M M n M M n M M M n M a 9 0 6 a ",
"+.b M n M n M M n #.:.;.:.;.M M M n #.:.;.:.;.M b M M k 0 0 0 0 b M M n @.:.;.;.;.;.;.;.:.#.M M M M M b n M b M n n M a 0 0 0 a ",
"M b n n b M M M M #.>.;.:.#.M b n n #.:.:.:.:.M M M o.j 6 6 0 0 n n M b @.:.;.:.:.:.:.:.>.#.M n n M b b b b b b c b n a 0 0 6 w ",
"#.@.@.@.o.k l k z +.=.#.&.@.M M M n o.+.+.+.+.c k k c k j j j k b M M b +.#.#.#.#.#.#.#.&.@.M n n M #.:.;.;.;.;.;.;.;.n g j j z ",
":.:.:.>.#.4 0 6 6 k M b b b n n n M a 3 4 6 6 6 6 0 4 k E M M M M M M M n b n M n n n n b n n M b n 5.W.K.K.E.K.E.E.W.;.b M M +.",
";.;.;.;.@.0 w 0 0 c M M M M M n M M k 0 0 0 r r a r 0 k M n n n n n M n M M M M M M M M M M M M b n 3.K.H.J.J.J.H.J.K.;.b M n E ",
":.;.;.:.@.6 0 9 0 k b b b b b v b n a 6 0 0 0 4 4 6 3 j n n n n M M M M M b b b b b n b b n M M b M 4.W.K.K.K.K.E.E.W.=.c v v M ",
";.;.;.:.@.9 w 0 0 l o.M M M M M M o.k 0 0 0 w r w a 0 k M M n E b M M b M +.M M o.M o.M M M M M b M 3.E.6.E.6.E.H.J.E.;.E +.E +.",
":.;.;.:.#.b b c b :.H.4.5.5.5.5.4.H.#.k b z o.2.5.3.4.>.=.=.=.&.a a a r +.H.4.6.4.5.6.4.6.<.n n n M =.2.<.<.2.2.<.<.1.0.X./.T.q.",
":.;.:.:.&.n M M n 4.W.E.W.K.W.E.E.W.>.b +.b @.E.W.E.W.5.;.;.:.;.a 9 6 $ @.W.K.K.E.E.W.E.W.4.b M M n #.;.&.&.=.=.;.;.*./.'._.'./.",
";.;.;.;.&.n n n b 3.E.H.H.J.J.H.J.J.;.c o.n @.6.J.H.J.2.;.;.:.=.g e r 4 @.E.H.J.J.J.J.H.E.3.n n M n $.:.:.:.:.:.;.:.=.e._./._.w.",
":.:.:.:.&.b M n b 4.W.J.E.E.E.E.E.E.:.j b k +.E.W.E.W.4.;.;.;.;.8 % & + @.W.J.K.K.K.K.E.W.4.b n n n =.<.:.<.:.:.:.-.O.R.'._.'.(.",
"&.#.&.&.@.n M n n <.H.5.5.5.5.5.6.6.<.=.=.=.;.3.4.3.4.<.;.;.:.;.T U U U %.H.5.H.5.6.6.6.6.2.n n M n +.+.+.+.#.-.:.:.1.0.w.q.w.8.",
"+.b M n n n n n n #.:.;.;.:.;.;.:.;.4.E.J.E.6.E b n b @.;.;.;.;. .X.{ { 7.=.:.;.;.;.;.;.-.&.n n M M j 5 r 4 k ;.:.;.:.+.b v n b ",
"o.b n n n M M n n #.;.;.;.;.;.;.;.;.4.E.J.W.6.+.b M b @.:.:.;.;. . .{ { | -.;.;.;.;.;.;.:.&.b n M n g 6 0 4 k ;.:.=.:.o.b M M l ",
"+.n n n M n n n n =.:.:.:.:.;.:.:.;.4.K.J.K.6.+.b M n @.:.;.:.:.{ { { { 7.-.;.:.;.:.:.;.:.=.n n M M a 6 a 4 l ;.:.;.:.@.n n E b ",
"+.b M M M b n b b #.:.:.:.;.;.;.:.=.5.K.J.W.H.M z n c #.:.;.;.:. ...{ ..7.:.;.;.:.:.;.;.:.=.n n M M a 6 0 3 k ;.:.;.>.+.b b b x ",
"k a g a l #.#.$.&.+.+.+.+.+.:.;.:.;.>.2.1.2.2.4.4.4.5.;.o.+.o.o.W W W W Q o.+.+.+.+.+.+.+.+.n n M n b c b l n +.@.+.o.>.4.4.4.4.",
"r 6 6 4 k :.:.:.:.+.b n b +.;.:.;.;.;.;.;.&.:.E.E.K.W.<.c n n n v v v v M n n n b n b n n n M M n M M M M M n n n n c 4.W.W.K.K.",
"g 0 w 0 k :.;.;.:.+.n M b +.;.;.;.;.;.;.;.;.:.H.J.H.E.>.b M M M n n n M E n n n n M E M E M n n n n n n M n n M M M b 3.J.J.J.J.",
"r 4 6 3 j :.:.:.:.+.b M b +.:.:.:.:.:.:.:.;.2.E.E.E.W.>.c b n n n n M n M M M M n b c b c b M M M M M n M n n b b b k 4.E.E.E.K.",
"l j k j b =.=.&.=.+.n n n +.#.@.#.#.&.=.=.&.:.5.H.6.H.:.E o.o.o.M n M n n c c c b @.#.@.&.+.c c b v b n n n o.@.#.#.@.3.H.H.6.H.",
";.;.;.;.=.n M n n n n b E n 0 0 0 0 k M n b M ;.:.;.:.;.:.;.;.;.M n M M k 0 r 0 0 4.E.J.E.2.6 0 0 0 z n E c #.J.E.J.J.2.;.;.;.;.",
";.:.:.:.=.n n n n n M n M b 0 6 0 6 k M n n M ;.;.;.;.:.:.;.-.;.M M M M k 6 0 6 0 5.W.J.W.2.4 0 0 0 c M M c #.E.E.J.E.<.;.;.;.;.",
"&.-.;.:.&.n M M n E M M E b w 0 w 0 k n n n E ;.-.;.;.:.;.;.;.;.M n M M k 0 w 9 r 4.E.H.E.2.6 0 0 0 c M M c &.H.E.H.E.2.;.;.;.;.",
";.:.:.:.=.n M M M b l c c k 9 5 0 4 c M M n +.:.:.:.:.:.:.:.:.:.M n M M z 6 0 4 0 5.W.E.W.3.3 0 9 9 c M M c ;.K.W.E.W.3.;.;.:.;.",
"@.+.+.+.+.g j g j ;.4.2.4.>.x k c k k j k g k +.@.+.+.E b b b b M M M n b k c k k &.:.;.:.#.k z c k b M M b E ;.;.;.;.;.;.:.;.:.",
"+.b n n c 6 0 6 4 2.W.K.W.H.M b M M j 4 0 6 r b M n n g 4 6 6 9 b n M n n n M M M b b b c n M M M M M M n M b b b b c #.:.;.;.:.",
"+.n E n c 0 w 9 0 2.W.H.E.H.M b M M k 0 8 0 a n M n M k 9 0 0 0 n M n n n E M n n M M n M M M n M n n n M n M M M M n &.;.;.;.;.",
"+.n n M c 6 0 4 4 2.W.H.E.4.M b M M j 6 0 9 a b n b M k 0 0 0 0 n n n M n b n n n M M M n M M M M n M n M M n n b M n #.;.;.:.;.",
"M b n n c a a a a 2.W.H.E.H.M b M M k 0 r 0 g M +.E +.k 0 0 0 0 n n M n M E +.+.E M n n M n b b n n n M M n M +.M o.M #.;.;.;.;."
};
