/* XPM */
static char *_e77f5a72f124a559db51de97df06449sLYKHbvMOblrfioU[] = {
/* columns rows colors chars-per-pixel */
"64 64 166 2 ",
"   c #B50000",
".  c #BA0000",
"X  c #BC0D00",
"o  c #BD1300",
"O  c #BD250E",
"+  c #BD2F0E",
"@  c #BD390F",
"#  c #BB3612",
"$  c #BE3B14",
"%  c #C11B00",
"&  c #C12300",
"*  c #C32B00",
"=  c #C53200",
"-  c #C0310F",
";  c #C13212",
":  c #C03D15",
">  c #C03F18",
",  c #BE4016",
"<  c #BC4027",
"1  c #BF4328",
"2  c #BF4828",
"3  c #C84200",
"4  c #CC5600",
"5  c #C24316",
"6  c #C64A17",
"7  c #C84B17",
"8  c #C44518",
"9  c #C64C19",
"0  c #C84D19",
"q  c #C65117",
"w  c #CE5715",
"e  c #CD5815",
"r  c #C7521A",
"t  c #CA541B",
"y  c #C75A1F",
"u  c #CB5B1D",
"i  c #D26700",
"p  c #D56A00",
"a  c #D67000",
"s  c #D87E00",
"d  c #CE621E",
"f  c #CE681F",
"g  c #D0631F",
"h  c #D0681F",
"j  c #C14628",
"k  c #C34B29",
"l  c #CD5E20",
"z  c #C6512B",
"x  c #C9572B",
"c  c #C75A2D",
"v  c #CA5C2D",
"b  c #CE6321",
"n  c #CF6A23",
"m  c #CD632E",
"M  c #CC682E",
"N  c #D16521",
"B  c #D16A23",
"V  c #D26B26",
"C  c #D26C24",
"Z  c #D46F26",
"A  c #D46F28",
"S  c #D27023",
"D  c #D27124",
"F  c #D47026",
"G  c #D57326",
"H  c #D27425",
"J  c #D57527",
"K  c #D67626",
"L  c #D87727",
"P  c #D77825",
"I  c #D67A27",
"U  c #D87826",
"Y  c #D97D25",
"T  c #D47229",
"R  c #D47529",
"E  c #D87728",
"W  c #D57B2A",
"Q  c #D77A2A",
"!  c #D77C2A",
"~  c #D87829",
"^  c #D97B2A",
"/  c #D97D2A",
"(  c #D97F2B",
")  c #CD6731",
"_  c #D47E32",
"`  c #D97F30",
"'  c #D07738",
"]  c #D7832C",
"[  c #DA802B",
"{  c #DB822D",
"}  c #D9842C",
"|  c #DB842C",
" . c #D8892D",
".. c #DB892E",
"X. c #DB8A2F",
"o. c #D68332",
"O. c #D98530",
"+. c #D68B36",
"@. c #DB8A31",
"#. c #DB8D33",
"$. c #DC8E32",
"%. c #D78D38",
"&. c #DB8E3C",
"*. c #DB9130",
"=. c #DC9133",
"-. c #DD9232",
";. c #DD9633",
":. c #DE9235",
">. c #DD9434",
",. c #DE9734",
"<. c #DD9933",
"1. c #DE9935",
"2. c #DE9A34",
"3. c #DC943A",
"4. c #DE9C3B",
"5. c #E09736",
"6. c #E09B35",
"7. c #E19B36",
"8. c #E19D3A",
"9. c #DFA13C",
"0. c #E1A43D",
"q. c #E3AA3F",
"w. c #DA9240",
"e. c #DE9F46",
"r. c #DEA244",
"t. c #DFAA43",
"y. c #E1A542",
"u. c #E4AD42",
"i. c #E1A448",
"p. c #E5B345",
"a. c #E8B245",
"s. c #E6B648",
"d. c #E7BA4A",
"f. c #E9BC4B",
"g. c #E5BD53",
"h. c #E9BE51",
"j. c #E9C34E",
"k. c #E6C253",
"l. c #E9C652",
"z. c #EACA53",
"x. c #EAC758",
"c. c #EACE59",
"v. c #EBD159",
"b. c #EDD95F",
"n. c #EDD765",
"m. c #EEDD62",
"M. c #F0DE61",
"N. c #EEE164",
"B. c #EFE56B",
"V. c #EEEA6D",
"C. c #F0E364",
"Z. c #F1EB6F",
"A. c #EFEF71",
"S. c #F6EF78",
"D. c #EFF274",
"F. c #F3F375",
"G. c #F5F27B",
"H. c #F5F97A",
"J. c #D29791",
"K. c #D59991",
"L. c #D99C91",
"P. c #DDA393",
"I. c #E3AC93",
"U. c #E6B595",
"Y. c #F7FD83",
"T. c #F9FF85",
/* pixels */
"u u q q q t 5 # $ # # # # # # < : : : t u u t Z ( U ~ ~ ~ ~ ~ E u t q r l t u u 9 # : $ # $ $ $ $ # $ # $ $ # $ # r U I J ~ ,.<.",
"u u t q t 0 5 # $ $ # # # # # ; : $ # t e t q C U U U I J I U J l t y y z q t t 9 # # : : # $ $ # $ $ # # $ # $ @ 2 I J J ! <.1.",
"C C u t r u 8 # : # # # # # : 9 0 r 0 C T J V [ ,.*.-.$.@.$.$.@.b u l l u t t t 9 > 5 5 8 $ , $ : $ $ $ $ $ $ , # y [ W ( ~ B N ",
"Z A u t r u 8 # # : : $ : ; : z w t t S R ~ J ..1.<.,.,.,.:.:.-.b u l l t 0 t q 6 8 8 8 5 > 5 5 5 $ $ # $ , , , # y | ] ( ~ t r ",
"Z Z u 0 t t 8 # $ $ $ $ $ $ $ t t t t S J I H ..,.,.,.:.*.-.-.$.N b u N t t z w 0 8 6 6 9 , 8 , , : $ $ # , , , # l ( ( ( W u t ",
"T T u t t u 8 # # $ # # # $ : q t t 7 F I J H ..7.<.1.,.,.,.3.:.l u u u 0 9 7 0 5 # ; ; # @ @ # # # $ # $ $ $ $ # u { { { ( t z ",
"N b 0 9 7 7 8 : > , 5 5 , 5 8 l l l d J Y I ! [ ..| ..@.{ { { | Z B B h C S Z V W %.%.%.O.B C n G 9 5 5 5 5 5 5 $ r V N N N w u ",
"u t 8 8 8 8 8 8 8 8 8 9 9 9 0 V B B B ( [ ( [ J I W W H H H R H L L J I | ..| [ 9.j.d.d.p.........t 8 9 9 9 8 9 8 9 9 9 9 0 t t ",
"u l 8 8 8 8 8 8 8 8 8 9 9 8 0 V V B N ( ( ( ( ( ! W ( W J L L E L L G L ] ] ] [ <.d.p.d.u...]  .O.t 8 8 9 9 8 6 8 9 r r r r u t ",
"y u 8 5 8 8 5 5 > > 5 8 8 5 9 N N N N ~ [ ~ ( ( W W R W L E L E L L E J ] [ ] [ <.s.q.p.q.{ | ] / t 8 5 8 8 8 8 8 7 r 9 0 t u t ",
"t t 0 6 8 0 q t t r u u l l l Z B Z Z ( @...O.| ] O...[ T R T T G G G Z ( | | Y t.c.z.c.j.4.4.4.4.N t l l 6 8 9 6 6 9 9 9 9 0 0 ",
"r q r r r 0 h J J J I [ ( [ ( ! W ! ! ,.7.7.7.8.7.1.7.$.C Z A V l u N u Y ....I f.H.F.F.V.c.c.c.x.` A T T l 5 8 8 8 5 5 8 8 : : ",
"0 z q t t 7 n I J S W ( ( ! ! W W W I ,.7.7.6.7.4.7.7.$.C Z Z V g g d d I ....Y k.D.D.D.V.z.z.z.x.( Z G H r 8 8 5 5 5 5 5 5 $ : ",
"r r t 0 t 7 f J S S R ( ( ( ( W I W W ,.7.7.7.7.7.1.7.$.B Z Z C d g g d Y ....Y k.H.D.F.Z.z.z.z.x.o.Z T H u $ 8 8 5 5 5 5 $ : : ",
"0 0 t q 0 q h I J L ~ [ o.[ ( W W ] ( ,.7.7.3.7.4.7.7.-.V Z Z V d g g g Y ..| U g.A.B.V.B.l.l.l.k.` Z G R l 8 8 8 6 5 5 5 5 : : ",
"0 7 t q t 7 G | | [ @.7.1.1.1.,.;.,.,.5.4.7.7.<.7.4.4.$.B C V V B V C h C C Z B W 3.%.:.#.| +.@.@.T Z H R d u u u t 7 6 6 7 : : ",
"0 0 t t r 6 G { [ [ ..8.2.7.7.<.<.<.<.<.7.6.6.7.<.7.7.$.C A Z Z C Z C C V N N N H ..| ] ] | ] | ] R R R J N u l u u 7 9 0 7 : : ",
"0 0 r t t 0 H | | ( ..8.7.8.2.<.<.<.<.<.7.6.6.7.7.7.7.:.C A V Z C C C C V B B B ! ....{ @.| o.| [ R R A J N u u u u 7 0 0 6 : : ",
"0 0 0 0 q 6 J | { | @.7.7.5.5.:.:.,.,.<.5.7.7.7.7.7.7.-.V Z n n Z Z G Z V N V N W ..{ ....] | { { R Z H G g u u l t 7 9 0 6 : : ",
"l l W W W R ( [ { ~ 7.f.f.f.f.q.p.u.u.p.u.u.s.3.R ( ( J u d b d l l l l l u l u b F G n T C Z Z Z N l b g l l u l u 0 6 0 0 : : ",
"N N ( O.| { ( ( [ W 8.l.j.j.j.s.s.s.s.s.s.s.d.3.N H Z n t t u t u u 0 u u t t t u l l u l g g g g u u u u u l u u u r r r 0 $ : ",
"N V ( | o.{ ( ( [ ~ 4.l.j.j.j.s.p.p.p.p.s.p.s.3.V H H V u u u u u u u u u u w u u h N g N h N N B u l u l u l u u u t q t q : : ",
"d g E ( ( E ( ( ! J 4.l.j.j.j.s.d.s.d.d.s.s.d.3.n H H n u u u u u d u u t w t u u w w u u l g h l l l u l l l l l u q t t q $ : ",
"[ { 8.y.0.y.7.[ @.] 4.j.d.j.d.y.y.0.0.y.0.u.9.] d b n f t t t u q r r q l N N l T &.@.@.@.{ ~ ] ( u t u t t t q 0 0 5 6 9 8 $ : ",
"7.4.f.j.j.j.0...5.$.9.s.s.s.u.:.*.-.:.$.-.$.5.R 0 u t t 0 q t 0 9 9 k 8 N G Z C :.a.u.a.q.7.1.2.1.l 7 z q , , , 5 : # : : # 5 5 ",
"3.4.d.j.f.j.0...-...4.d.p.s.p.:.-.:.,.:.:.,.5.R q u u e t 0 t t 8 0 9 9 N G Z h :.u.y.u.0.5.,.1.,.u 0 0 q 6 5 5 5 5 $ : : : 5 5 ",
"1.4.d.j.f.j.0.$.,.$.0.d.s.d.s.,.5.,.5.5.1.3.4.W 0 u u w t t r r 0 k 9 8 N C C g | u.0.y.0.-.5.,.-.l 0 t q 9 5 5 5 5 $ : : 5 , , ",
":.,.a.a.s.d.4.[ ..| -.y.9.0.e.| O.O.{ o.O.] ] n t w w z t 0 r q 9 9 9 9 T | { Y y.x.k.k.f.0.0.0.4.b 9 r r 8 , , $ , $ : @ @ 5 5 ",
"[ ] >.>.,.1.W B V C b q t t q 6 9 8 6 6 6 6 6 6 0 0 9 9 0 9 9 7 0 7 7 5 8.s.s.y.n.T.T.T.F.z.l.z.l.b 8 9 0 8 $ $ , , , , , 5 9 8 ",
"| | ,.1.<.7.( B G C b u u u u q q 9 9 r 9 9 r 9 0 0 9 9 9 7 9 9 0 7 7 5 4.s.u.u.n.T.Y.T.G.j.j.j.k.b 8 r 9 8 , , , $ , $ , , 6 9 ",
"O.] <.1.<.7.! B Z C n u u u t q 9 0 r 9 9 9 9 r 9 9 q 9 9 7 9 q 0 7 0 8 8.s.s.y.n.T.Y.Y.G.l.l.z.x.b 6 0 9 5 $ , $ , , , $ : 9 8 ",
"o.] ,.1.,.5.! V V V h u u u u 6 q 0 9 r r r r 9 0 q r 0 7 9 9 7 7 0 0 $ 4.s.s.q.n.T.H.Y.G.j.j.j.h.b 8 0 r < $ , $ , , , $ > 9 9 ",
"A G $.&.$.-.~ Z C S d q q q q 9 9 q 9 9 9 7 7 9 q 7 9 9 7 7 0 6 0 q 7 5 u.j.j.j.v.N.N.N.v.........u 6 0 7 , # $ $ $ $ $ $ : 7 9 ",
"A T @.$.$.-.U B F H b 6 9 r 9 r q 9 q 9 7 9 9 9 9 9 7 7 9 7 7 0 r q t 7 u.z.j.j.v.N.b.N.v.| | | | t 6 0 6 , # # # $ : : : 5 7 7 ",
"Z L #.$.:.:.( B C F n 6 9 r q 6 0 0 q 9 q 9 q 9 9 9 7 9 7 9 0 7 0 r z 5 u.z.j.j.v.m.N.N.v.] ....o.u 6 6 7 8 $ # # $ $ 5 $ , 7 9 ",
"A Z $.:.$.:.~ B G H n , 9 9 q q 9 0 9 7 0 9 7 7 9 7 9 7 9 7 0 0 0 r q 5 u.z.j.f.v.N.N.N.v.|  ...O.q 6 9 9 $ # $ # $ $ $ $ , 9 7 ",
"L J [ O.o.{ T B B n b t t t l q y r u r q t e r u r u t r r z t l N g u y.d.p.s.p.p.p.s.t.d n d b l u t u t r t t 0 5 7 6 7 q r ",
"L L ( ~ W ( Z d N f d u u u y u y u u u u u u u u u u u r l t u N B B N 4.p.u.p.q.1.1.1.*.t u u t u u b u d b b N u 9 7 0 0 t u ",
"L W ( ( ( ( F d f f d y r u l u u t u u t u e u u y u t l r t r B B B g 4.p.u.p.q.4.9.0.3.u u y u u l u u u u u u u 6 7 9 7 t z ",
"J R ( ( ( ] H b n n d u u u u u u u y e e u t t y e y e t t q y N B V f 0.d.p.d.u.0.0.0.3.u u u u u l u u d l l u u 6 9 7 9 u w ",
"W J G Z L Z N l u u u t t t u l d d d u u u u N B B B B b l b b u l l u ` #.#.#.O.| { ..! 9 r 0 q t l l u u b d l u 0 t 0 0 u l ",
"~ ~ N g g g u 7 0 t t t t t t N d d b d N b g S W I I J Z Z Z V t q 0 t 7 5 8 > 0 u u u t 8 8 8 8 z 0 9 r b n b h l 0 t t u l u ",
"~ ~ B g g g u 6 t 7 t t t 0 t N b b b d d g d C U I J J C V Z V t t q t u t r y u N u b l 8 8 8 8 t t l t b n d N b r t t t u u ",
"( ~ B g g N u 0 t t 0 0 0 0 r u u u u d d d u f J J J J C Z B B t q t t r t r r u g g h l 8 8 8 8 u r b t b n b B d r u t u l l ",
"J J d g g B u t u t t u u u u E W R R J S S S I | [ ] ! Z G G Z t 0 r r 0 0 9 9 0 u u t t 8 8 8 8 r z q l u u l b u r r t t l l ",
"t t u l u u u u l l h Z C B W u.q.u.u.0.<.<.7.5.7.5.7.-.W ( I W r 0 r 0 , $ , $ $ : : : : > , $ $ 8 6 6 5 8 6 6 8 9 r 0 9 q l u ",
"t u u l u u u g u u g Z Z C U u.u.q.q.<.<.5.<.<.5.<.7.X.I W Y W r 0 9 q 8 $ , , : : > : : > : 5 $ 8 8 5 8 8 9 8 9 9 9 q 0 q u u ",
"e q u d u u u l u g g Z Z h L u.q.q.q.7.<.<.<.5.<.,.1.$.I I I W r 0 q r , , , , $ > : : : > $ $ $ 8 5 8 8 8 9 9 8 9 r 9 0 9 u t ",
"t u u u u u u u u u N R J G ( u.p.q.p.6.6.6.2.1.1.1.1.#.E ( I J t r 9 t , $ , , : : > > $ 8 $ 5 5 5 8 8 5 8 9 8 9 0 7 0 6 q u u ",
"q q l N d d B g N e $.j.f.f.j.n.b.b.b.z.j.j.l.0.$.-.*.| G T G G 6 $ 6 8 8 8 6 , 8 8 8 8 8 $ $ # $ 5 5 , 5 9 k 9 6 r g g d d d n ",
"9 0 l N g g g d N w $.z.j.j.l.m.N.N.m.v.j.j.z.u...#.-...Z T T Z 2 5 8 8 9 8 8 6 7 8 9 8 8 > # $ $ 5 , 5 5 8 9 9 9 t N g d d n d ",
"q 0 l l l d d d h w %.l.j.j.j.m.m.m.m.z.j.l.z.q...+.:.O.Z G G Z 6 5 8 8 6 9 6 8 8 6 8 8 8 $ $ # $ 5 , 5 5 8 9 0 8 z N g d d n f ",
"9 q l N N b g d b w %.z.j.j.l.m.m.m.m.z.l.l.z.q...*.*. .S J G Z 9 8 8 8 8 6 6 9 6 9 5 9 8 $ $ $ $ 5 5 : 5 6 9 9 9 t g g d d f d ",
"0 r l l N u N N N w %.l.l.j.l.m.m.N.N.u.<.4.9.*.] { [ [ h C Z C , 5 $ 5 8 8 8 5 8 8 5 8 5 $ $ $ $ $ : $ $ $ 8 5 5 9 g g d d d d ",
"0 0 l N N g l l N t -.z.j.j.l.m.m.m.m.4.Y | ] [ I Y [ J C B B h > $ $ $ 5 8 8 8 5 8 8 9 5 $ # $ # $ # : $ > 5 5 : 9 l l g d d d ",
"0 9 b b l N N l N e :.l.j.j.l.m.m.m.N.2.] ..| ] ( Y [ I C C C B 8 > $ 8 5 8 8 8 8 8 8 8 5 $ $ $ $ $ $ $ $ $ 5 5 5 q N u b d d g ",
"7 0 l N l N g N N u &.z.l.j.j.N.N.N.N.4.| ....| [ [ [ W N N N N + O O O $ 8 8 $ 9 6 , 8 8 $ $ $ # $ : # $ , , 5 : 9 N g l g g g ",
"q t l l N l l u l 7 O.f.f.f.d.l.l.l.l.%.S ! W n h h n Z ( W ( ! ' W W ( l 6 r t , , , 6 $ $ # # $ # $ $ # , , 5 5 6 u t t u u u ",
"u t u l l u u 0 t 7 { s.q.p.u.1.1.2.<.n q t y 0 5 7 : l :.:.-.:.u.p.q.a.W r l u 6 $ , , $ # # # # $ : $ $ 5 , 5 , 5 6 8 8 9 q q ",
"r u l l u l u t t 7 _ s.p.p.u.0.9.9.9.n u u u q 8 9 5 b %.#.$.%.q.q.q.u.W r u u t $ , , $ $ # # @ # # $ @ $ , 5 5 5 9 8 8 9 t q ",
"z t l l l g u q u 6 O.d.p.p.p.9.9.9.9.F u u u r 8 9 5 l $.$.$.:.u.u.u.u.H q u u 6 $ , , $ # @ # # # $ $ ; 5 5 5 5 5 8 8 9 9 t t ",
"v v m m v v x x x k ' i.r.r.e.3.w.w.3.) x c c x z z k m &.&.&.&.i.u.r.u.' m M M c 2 2 2 k < < < 1 1 1 j < j j j j k z k k z x x ",
"* * % % % % . . . . . . .             .   . . o * * * 3 i i i i s s s s a p i a 4 * = = &         . . . . . % . . % % . . X * * ",
"P.L.L.L.L.L.L.J.J.J.J.J.J.J.J.J.J.J.J.J.J.J.J.L.L.L.L.L.I.I.I.I.U.U.U.U.U.I.I.I.P.L.P.L.L.J.J.J.J.J.J.J.J.J.J.J.J.J.K.K.K.K.L.L."
};
