/* XPM */
static char *_c9bfd6be611485ade01d08a98ffe25ahHLm9wg3Q0djsyVy[] = {
/* columns rows colors chars-per-pixel */
"64 64 73 1 ",
"  c #DCD496",
". c #DDD69D",
"X c #DFD89F",
"o c #E1DA9F",
"O c #DFD7A1",
"+ c #DFD8A0",
"@ c #E0D7A2",
"# c #E2DCA5",
"$ c #E4D7AC",
"% c #E5DAAD",
"& c #E8DEAD",
"* c #E7DAB0",
"= c #EADEB3",
"- c #E9DEB8",
"; c #E6E1AC",
": c #E9E0AD",
"> c #E7E1B1",
", c #ECE2B3",
"< c #EDE0B5",
"1 c #EEE1B6",
"2 c #EEE4B4",
"3 c #ECE7B5",
"4 c #ECE9B6",
"5 c #EDEAB7",
"6 c #E8E1B8",
"7 c #EAE5BA",
"8 c #EAE6BF",
"9 c #EEEAB8",
"0 c #EFEBB9",
"q c #F0E5B6",
"w c #F1E6B7",
"e c #F1E4B9",
"r c #F2E7B9",
"t c #F2E5BA",
"y c #F2E6BB",
"u c #F3E6BB",
"i c #F3E7BB",
"p c #F4E7BC",
"a c #F4E8BB",
"s c #F5E8BD",
"d c #F5E9BD",
"f c #F6E9BE",
"g c #F7E9BF",
"h c #F0EDBC",
"j c #F1EDBD",
"k c #F2EFBE",
"l c #F8EBBF",
"z c #F3F0BF",
"x c #EAE7C2",
"c c #F7EAC0",
"v c #F8EAC0",
"b c #F9EBC2",
"n c #F8ECC1",
"m c #F3F1C0",
"M c #F4F2C1",
"N c #F5F3C2",
"B c #F5F3C3",
"V c #F9F4C6",
"C c #F8F7C8",
"Z c #FBFACC",
"A c #FCFACD",
"S c #FCFBCD",
"D c #FDFDCE",
"F c #FDFDCF",
"G c #F4F2D7",
"H c #FEFED0",
"J c #FFFFD3",
"K c #FFFFD6",
"L c #FFFFD7",
"P c #FDFDED",
"I c #FEFEEF",
"U c #FFFFF2",
"Y c #FFFFF6",
/* pixels */
"qiqi2;;;;##;o;&=-*quiip%+@@@#&@&+X++@i2qa>&;;;;;;&;###&&qrpe####",
"ivfcq#########%%%$1vplv#.X#+..XXXX+.#vccvq######o###o;#qllll&#&#",
"ifff2#;###;;#%%%*$1fppf#X+X+++++X+++#pffj,####;##;;####qjflp;###",
"avfvqo##;#o###**%$evvvv%.++++++++++.#cvfv2######o####;#qlllp;##;",
"2i2q:#;#&##%&%%%*$-2222%++++++++++#.#iqqq:#&@&&&::;###o&faqi####",
"#####;###%**%%%*%*#.XX++++++++++++.+@@###%****ivllq##&#;###;%%*%",
"#;#;#;###%*%****%*#X++++++++++++++XX#####%*%%*ifllq#########%*%*",
"#######;#%*%%%*%%-#X+++++++++X++.+XX###;#%%**%ifllq#;#;##;#&%*%*",
"X;#;#oo.o&-*******#+++++++++++XX+..X.####@*%%*icnnqo########%%*%",
";##o;GGGG6O#@#O#O#OO+++++X+++++X&1,,,%&%&%****=;2::####5NzNz%%**",
";o;.7YYUYx O++OOXXX++++++++++++.qvfnp*$*%*%**%#####;;##zKJJJ-$%*",
";#%o7UIIU8 O+++O++++++++++++++X.,fffi*****%*%*#;#####;#mJFFF=%%*",
";#;X7YUUYx O++++++++++++++++XXXX,vflp$%%%%***%@#;#;##;omJFFF=$**",
"##;o7UIIIx.+++++++++++++++++XX+X,lplp**&**%%*%&######&#jJFFZ>%*%",
"####;++%%+++++++++++++++++++###+&*=*1SFZJj##&#%%%%&%%%%%;;;;#&#&",
"#o;#+X.XXX++++++++++++++++++##;;%$%$-FJFKj####%%**%%*%*#####;##@",
";####XX++++++++#++X+++++X+++####%*%%,FFFJzO%##%%**%**%*%#%#;####",
"######++++++++. ...O++++XX.####%%%%%-JJFKz####%$%%$*%**#;####;#;",
"#####+++++X+X#5555;.+++###.#&#%#=e1>1zzzz2#%&&1111-&&.$#X#######",
"#X.XX++X++++.@JJJK0.#++@###&*%**epffa####+**%%flfl1##;##XXXXXX..",
"#X++X++X++++.#ZJFJ0.+++##&##%***qlpva#;##%%%**ffff2#####++++XX++",
".+++++++++++X#SJFK0.+++####&**%%efffq;##;#*%%%ifffi#;##oX+++oO++",
"XX+++++++++X.#FJJK0 XX+####%*$$$pffla####%**%%fvflq#####X+++XX++",
"#+++++++X#####;;;;;####%%%%=iiip>&&%;aq2i>#%%@&##&###.#X+++X####",
"+..#.oO#.@##;#X.. +%#;O%*%%-llfl:##+;fjfl,####..XXXX++++X+.+####",
"#.+.#.OX.#&###XXX#+;##;#%*%=ffff:#;#;anflq###;#X+++X++++++.##&;#",
"#X.#....X#####..+ X;#;;$*%$-vlfl:X#X#ffpi,#%##oX+XXX+++++XX.;###",
"X@..#&#&&####O&&%&###%#$*%%=qqqq5224qVvvV0+####X++#+++X+#X+##&##",
".#+.#vlpf:..##pvjve%*$**%**%@###NKJJJFJFKj +XX#####X+++###;%#*%*",
"..#.%pffl>....pfffe%**$*$*$%#&##mJFFJJJFK0X+oX###;#XXX+##;X#%*%*",
"#++.#iffl,.#.#ivffa%%%*****%####NJJFFJFFKj.XX+#;###XXXX#;X##%*%*",
".+.+#ilfv:...#ipfli$***$*%$%#;;.NKJJJJJJK0 XXX##&##XXXXo#;%#****",
"+X++##%##5CNCN-==-;#####&#&O#+#+:554334352,12,#######$#O@###O#$#",
"O+++.... jKJJJ*%%%%##;######XXX+.... . . &vcnf@...#***-#.++.+...",
"#+++o@@#.iJZFF**%*%####;;#;#XX+++++++O.OX:vpff#.++@*%%*@.+++++++",
"O+.+..+#.0KJJJ=*%*&##;#;###OXX+++++++++O.>vpff#.+O@***=@.++++.++",
"#%&&%#@@X>CNNN%#%%%#########X++++++++++O.&iiii#.++#$$$%@#@@@##$@",
"1vfff*%%*$XX.X+X#.O.++++++XX++++++++++++++oO.+.#++++++.1nfffiuff",
">cifp%*%*%XX+++X++X+X+++++XX++XX++++++++++++.#+.++++++.ivfffffff",
",ffff*%%%OXX+++X+..#X#+++++X+++X++++++++.#.++..#++++@@+qvfffffff",
":vflf%*%*#++++XX++X. . +++++++XX++++++++++++..X+X......qvfffcvcc",
"#&#%##@@#+++++####;mmmc#++++###+#+++++++++++#.%@@$&1,,,pfffa,122",
".....X#OXX++++%###5KJKK; +X+#####X+++X++++++.@$***qvlvvvffvq####",
"o+++++O@++++++####2FFFJ;.#X##;#;++++++++++X+#@%**%=lfppfffvi;###",
"+@#.++++++++++##;#5KFFK;XXX+;%##++++++++++++++%**$=vplpffffq###;",
"+...++++++++++###+>FZZC;X+X++####+++X++++++++#%*%*1vlpvppff2####",
"++.#+++++++++++XXX++++++++++XXX+X+++++++X#**$*ipppffplf&#@##XXXX",
"X+.#X+++++++++++XX+++.++++++XX++X+++++++X#****pfflfflpl#.#X.#XXX",
"##..++++++++++++++++++#.#.#.++++++++++@@@#**%*ifpffffff#.##.++.#",
"...#++++++++++++++++++.. ...+++++++++....$*%*%flvvcccvn&....+++.",
"@o.@++++XO%#$#++++++++.0zac0++++++o.#,,,,&*$%*=,>,,,>,2@..##++++",
"#..#++X+X@****O++++++++CKJKZ++++++.#@fvlv=*%$*+......X.+#....+++",
"#.++++++##%**$O++++++++CKSJC++X++++.#plpv1%**%@+#o#.+@++++++@.#.",
"#.++++XX.@*%**O+++++++.CKJKZ++++++++#vvfn=*%%%@+@.++++++++++#.@.",
"##+++X+X+@%%%#O++++++++mZCSB+++++++.@pipl=$%%%XX.#++++++++@o..X#",
"+####&#;#&##%;#+++++++++++++++++++++.o@@##@@#+##@######+++..##..",
"X#;X#######;#;XX+++++++.XXXX+++++++++++++++XX+#;#######+++++++++",
"o;X;;#;##;####XX++++++++++++++++++++++++++++++##;#;#;;#X++++++++",
"X;;X######;;#;XX+++++.+++X+++++++..+++XX++++X+######o##X++++++++",
"#%%%%%&$%#+++++++++$$#$+X+++++++#$%@#$##O+###+####;j050+.+++++++",
"%**%**$**%X+XX++++#****#X+++++++%*%******###;%++X 5KJJJ&.+..++.#",
"*%***%*%%#X+X+++++O**$$#X+++++++#**%**%**#%###++X.5KFFF#..##+++.",
"$*%**%***%X++++++.#**$*++.+X++++$$$$%%**%&###;O++.5JFJJ#.@..++++",
"**%*%%$%%@X++X+++O#*%$$#+#+++++@%----**$%###;X+++ 4JFJF#.##@.+++"
};
