/* XPM */
static char *_39d85ce13dd44cae8cf0f565550fcc5wdccanUlf9LOX3g8[] = {
/* columns rows colors chars-per-pixel */
"64 64 35 1 ",
"  c gray26",
". c #444444",
"X c gray29",
"o c gray31",
"O c #505050",
"+ c gray33",
"@ c #585858",
"# c #5F5F5F",
"$ c #606060",
"% c #646464",
"& c gray42",
"* c #6D6D6D",
"= c #727272",
"- c #777777",
"; c gray47",
": c #7C7C7C",
"> c gray51",
", c #848484",
"< c gray54",
"1 c #8E8E8E",
"2 c #929292",
"3 c gray59",
"4 c #9B9B9B",
"5 c #9F9F9F",
"6 c #A2A2A2",
"7 c gray65",
"8 c #AAAAAA",
"9 c #ACACAC",
"0 c gray69",
"q c #B4B4B4",
"w c #B9B9B9",
"e c gray74",
"r c #C3C3C3",
"t c #C5C5C5",
"y c #C8C8C8",
/* pixels */
"&$%#;6454799981112;**&-45553<11289996,<<<,,,<;####$$$#=44441,<<,",
"&#%@:989999997,,,,=$&$=88893>,>,900q6<1111222>$%$%%%%#;8767<;:::",
"*$%#:877889987,<<<-%&%=78784,<,<90905<1<<1111>#$$$$%%#;6656<:>>>",
"&@$+;998899908,<,<=$&$-78883>,,<0q0w6<1111112:#$%%$%%#;7777<::::",
"---=>555566665>,>,=#$#*78784,<<<67774,<<<<<<1;#$$$%%%$-3323<,,,,",
"36663-;;-::::::>:>%o+o$788842222::;;;>::>,,,,-o@++$%%%$###@<5343",
"35553;;:;:>:>:>:>>%o+o%887851222>>>>>:>::,,,<-O@+@$%%%%%$$#<4332",
"36563-:;;::>:>:>:>%o+X$887852221>::>:>:>>,,,,-O@@+%%%%%$$%#<3332",
"37673-;-;:>:>>:>:,%o+o$888952322::>::>:>:,,<<-O@++#$##$$%%#<5342",
"-;-->2223,;>::--=-%O+o#1111<,,,,<<<1,>>:>&%%&$+@@+<323<$$$$=-=-=",
"#@#+=5545,;::;**==$+@+#;::::>:>>1212,:>::@O+O+@@@+48784@%$%$###@",
"%%%#-4344,::>;==*-$+++@>>::>>>>>1111<::>>#@@@@#@@@37682#%%$%$%%$",
"###+-5455,;>::===-$+@O#>>>>:>>>>1222<:>>:@XOOO+++o48783#$$$$$$%$",
"*===:2122>-;;-****#O@+@;;:::>>:>,,<,>;;;;*&&&&%%&%35562$&%&%$%$$",
"78893o@++++@+@++@@@+++@&&%&-::>:+OOoO+@+@587864344,:>:>::>:*$$$&",
"78893o@@++@+++@++++@@++&%&%=>>::+OOoO++O+698864444,::>::>:>*$%$%",
"77793O@@@@@@@@+@@@+@@@@&%&%->:>;+oOO+@@+@597863434>:>>:>:::*$%$%",
"79804X+OOooXXoXooooXoXO%&&%;>>>:+oOOX.X X697874444,::;>:>>>&###%",
"3112,$&%%,2222,<,<1222<%%%$&&&&&###+:645556664<1<1<<<<,>:>:;;;;-",
",-;;;=--=7q0007777809q8%$$%@oOO+%&&#4yrtr64552;::;<2121:>:>,<<<,",
"<:::;===*59998566679897%$%%@@@@@%%&#3eeew65552:>>:<112<::>>,,,<:",
"<;::;-==*6q909666680907%$%$#+++@&&*@4terr64553:>>:12111:>::,<<<>",
",;:>;===*50898555578896%%%%#@@@@%&&@3wwqw64452::::1112<:>>>>,,,:",
",<,<:@##@16454,,,>:::::::::*$$$$$%$$$&&&&::>>,1111<,<,<2112*#%$$",
",<,<:@$#@15453:>>>;;;;:>:>:=$$%%$%$$$$$$$:>>:,1<11<,<,<2222*@$##",
",,,<:#$#@15443>>>>:;:;;::::=$%%$%%%%%%%%%;:::,11<<<<<<,2212*@$##",
",<<<:@#@+26554,,,,>::;;>>:>=@$###@@@#$$##:>>>,2221<<<,13233=+##@",
":>:>;%&&&;>:>:****&%&%&****==---,<<<:*========:;:;::>:;-;;;%####",
"-----==--@Xooo..X...X.XOO+o=1<<188894>>>>#+@@#$$$$*=*=%oooX@##@#",
"---;---=-$@@@+oooOooooO@@@O=<<<<67783:>>>%###$%%%$*===*OO++#@###",
"-----===-#O@++ooooXXXoX+++O-<,<<78774:>>:%@#@$%$%%*-*-&O+++@##@#",
";;;;-=---#+@@+oooooXoXo+@@+-1<<<77783:>>>$###$%%$$*==-*O+++@#@##",
"37676767665664;;::&@#+&6766423337878776761<<<>%*&&14332,,,,=$%%%",
"59888888988897>>>,*@$+&9990623337887888883123,&*&&254431111=$%&%",
"48878787878785>>>>*@$@*8989633337878887882122,&***24443<<<<=$%%&",
"69899888889996:>>>*@$@*9099634348888778873122,&&&%365541112*@###",
"25445555544453,,,,*+#+$34332<<<1788887887<>>,:=-==>,,,>::>::>>>>",
"-:;;:,>,,>;;;>1111&XOOO$$$$%=*&=787888887-%&&=>>:>O X.o$$$@40888",
";>>:>,<,<,>>:>1<<1&XOO+&%&%====-787888787-&*&=::>:#oOo+%%%#39787",
";>>:><,<,>:::>1111&XOO+%%%%*-=*-788787888-%*&=>>:>@XOoO%%$#49788",
";>>:,,,<<>:::,1111&XOoO%%&%&==*-798888888-%*&=>:>>@Xoo+$$$@48788",
"$%%$=<,<,>:>>;$$$$####$%%%$&&&&&*==*:1<<<::;:=@##@###@=544478886",
"@@#+&1<<<>::>;XooX@%%$%$%$$%&&&&+O+o%::;:>>:>*XoXX#$$@:988988886",
"#@#+&<<,<>>>:;OOOo#%%%%%%%%%&%&%###@*>>>:::>>*oOOO#%$#;887877786",
"@##+&11<1,>:>-oOOO+###@##@#$&%&%@+++*,:>>>>>>=oOOo+##O;988988896",
"@@##%::::;--;=+++O*;=--;:;;-*=**%$##&----;;;;*O+++=;;-,655666675",
"$$$$$++++@@++#%$%#1766790004:,>>--=-$XOOo#$$$$%$$#7q0q7>>,><2211",
"$$$$#+@+++##@@%$%@1766799903>,>>===-%oOOO$$%$%$%$$60906,,,>12121",
"$%$%#+@@@@#@##$$%#1766799904:,>>-=--%o+++$%$%$%$%$60907,,,,12121",
"@#@#@OOOO++OO+%%$#1766790994:>>>****# X.X$%%$%$%$$70907>,,,12221",
",1111,<,<,,,<:#@#@;1<<277783,1<<445441222&$$%$%$$#59896>,,,<,<<>",
"36665445445452+@@+=:;;:666641122990999998*#%$%$%$#59785>,,,,,,,;",
"2645433333333<+@@@=:::>666631111888887787*#%%$%$%$58785>,,,,,,,:",
"25555344443341@@@+=>>;>777741222999988888*#$$$$%$$69896>,,,,,,<:",
"36564333333331@##@=:;-:44442<1<<667777676=$&&$$%$$47674>,,,,,>,:",
"776751111,,<,>%&%&$$$$$OoOo@%%%&==-=:,>,>>:;:-$$%$-;;;:<<<<>::>;",
"777751111<,<,>&%&%%$$$#oooo#%%%%=--=;,,,>::>:-$%%$-;;;:,,<<>::>;",
"777751111<,<<>%&%&%$$%#OOOo@&&%&====:,,,,::::-$%$$-:;;><,<,>:>>;",
"77785<<<1<<,<>%&&%$#$#@oXoX#%&&%----:<,,,>:::=#%%$-;:;:<1<<,>>>;",
"243434444,>>>>****===-=*&&*%#$$$&%&%**===;>>>-$$%$*==-==*==&&&*%",
">1<,26667<;>::---=:>>>>>>>>*@#@@#@##@+@+@;>:>-$%$%&&&&$OOOOOOOO@",
",1<126666<:>>:====;>:>::::>*@######$####$;>::-$%%$&***&+@@@@+@@@",
",11<26667<::::-==-;>:>>::>:*@#@######@#@#;>:>-$$%$&&**&+@++@@++@",
",<<<26566<:>>:-==-:>:::::;>*#$$#$#$$$#@##;>::=$%$$****&@@@@+@@+#"
};
